# xmcd
#
# Track frame offsets: 
#        150
#        10707
#        22900
#        36702
#        49542
#        65797
#        76440
#        91770
#        105390
#        126952
#        137095
#        147950
#        155375
#
# Disc length: 2279 seconds
#
# Revision: 1
# Processed by: cddbd v1.5.2PL0 Copyright (c) Steve Scherf et al.
# Submitted via: ExactAudioCopy v1.0b4
#
DISCID=a608e50d
DTITLE=John Hammond - Can't Beat The Kid
DYEAR=1975
DGENRE=Blues
TTITLE0=Can't Beat The Kid
TTITLE1=It's Mighty Crazy
TTITLE2=I Hate To See You Go
TTITLE3=Groovin' Time
TTITLE4=Diddley Daddy
TTITLE5=Help Me
TTITLE6=Southbound Blues
TTITLE7=Statesboro Blues
TTITLE8=Terraplane Blues
TTITLE9=Chattanooga Choo Choo
TTITLE10=Screamin' And Cryin'
TTITLE11=Rag Mama
TTITLE12=Drop Down Mama
EXTD=
EXTT0=
EXTT1=
EXTT2=
EXTT3=
EXTT4=
EXTT5=
EXTT6=
EXTT7=
EXTT8=
EXTT9=
EXTT10=
EXTT11=
EXTT12=
PLAYORDER=
